<?xml version="1.0" encoding="UTF-8" standalone="no"?>
<!-- Created with Inkscape (http://www.inkscape.org/) -->

<svg
   width="50"
   height="50"
   viewBox="0 0 512 512"
   version="1.1"
   id="svg1"
   inkscape:version="1.4.2 (ebf0e940d0, 2025-05-08)"
   sodipodi:docname="icon.svg"
   xmlns:inkscape="http://www.inkscape.org/namespaces/inkscape"
   xmlns:sodipodi="http://sodipodi.sourceforge.net/DTD/sodipodi-0.dtd"
   xmlns="http://www.w3.org/2000/svg"
   xmlns:svg="http://www.w3.org/2000/svg">
  <sodipodi:namedview
     id="namedview1"
     pagecolor="#505050"
     bordercolor="#eeeeee"
     borderopacity="1"
     inkscape:showpageshadow="0"
     inkscape:pageopacity="0"
     inkscape:pagecheckerboard="0"
     inkscape:deskcolor="#505050"
     inkscape:document-units="px"
     inkscape:zoom="1.046875"
     inkscape:cx="400.71642"
     inkscape:cy="320.95522"
     inkscape:window-width="1876"
     inkscape:window-height="1006"
     inkscape:window-x="0"
     inkscape:window-y="0"
     inkscape:window-maximized="1"
     inkscape:current-layer="layer1" />
  <defs
     id="defs1" />
  <g
     inkscape:label="Layer 1"
     inkscape:groupmode="layer"
     id="layer1">
    <path
       id="path1"
       style="fill:#1a1a1a;stroke-width:12.1059"
       d="M 85.334544,1.3395663e-8 A 85.333031,85.333031 0 0 0 5.5131056e-7,85.33454 a 85.333031,85.333031 0 0 0 0,0.017 v 170.63031 a 85.333031,85.333031 0 0 0 0,0.017 85.333031,85.333031 0 0 0 0,0.0194 v 170.63032 0.017 A 85.333031,85.333031 0 0 0 85.334544,512 H 426.66546 A 85.333031,85.333031 0 0 0 512,426.66546 V 85.33454 A 85.333031,85.333031 0 0 0 426.66546,1.3395663e-8 Z" />
    <path
       id="rect8"
       style="fill:#c5d86d;fill-opacity:1;stroke-width:9.82205"
       d="m 246.90934,96.799818 c -3.82104,-0.10321 -7.56637,1.84097 -9.61914,5.396482 0,0 -7.64985,31.60326 -20.79102,36.00977 -19.21919,6.44459 -56.00977,-23.6875 -56.00977,-23.6875 -5.50007,-2.32604 -11.8009,0.22844 -14.12695,5.72852 l -6.95899,16.45507 c -2.32605,5.50008 0.2304,11.80091 5.73047,14.12696 l 51.50196,21.78125 -54.09375,93.6914 -21.51368,-9.09765 c -5.50006,-2.32605 -11.8009,0.22844 -14.12695,5.72851 l -6.958984,16.45508 c -2.326049,5.50008 0.228444,11.8009 5.728524,14.12695 0,0 15.05093,1.35721 17.00781,7.19337 3.99477,11.91394 -18.84961,32.64648 -18.84961,32.64648 -2.98586,5.17165 -1.22635,11.73875 3.9453,14.72461 l 15.47462,8.93359 c 5.17165,2.98585 11.73875,1.22634 14.7246,-3.94531 l 21.29493,-36.88477 99.64258,42.13867 -18.34375,31.77149 c -2.98586,5.17165 -1.22634,11.73875 3.94531,14.72461 l 15.47266,8.93359 c 5.17165,2.98586 11.73875,1.22439 14.7246,-3.94726 0,0 7.6488,-31.60139 20.78907,-36.00782 19.21967,-6.44507 56.01172,23.6875 56.01172,23.6875 5.50007,2.32605 11.79895,-0.23039 14.125,-5.73046 l 6.96093,-16.45508 c 2.32605,-5.50007 -0.23039,-11.80091 -5.73046,-14.12695 l -51.50196,-21.78125 54.09375,-93.69141 21.51368,9.09961 c 5.50007,2.32605 11.8009,-0.2304 14.12695,-5.73047 l 6.95898,-16.45508 c 2.32605,-5.50007 -0.23039,-11.80091 -5.73047,-14.12695 0,0 -15.04901,-1.35615 -17.00586,-7.19141 -3.99544,-11.9143 18.84961,-32.64844 18.84961,-32.64844 2.98586,-5.17165 1.22634,-11.73875 -3.94531,-14.72461 l -15.47461,-8.93359 c -5.17165,-2.98585 -11.73875,-1.22634 -14.72461,3.94531 l -21.29492,36.88673 -99.64258,-42.13868 18.34375,-31.77148 c 2.98585,-5.17166 1.22634,-11.73876 -3.94531,-14.72461 L 252.0148,98.250998 c -1.61614,-0.93308 -3.36863,-1.40427 -5.10546,-1.45118 z m -13.6836,91.285152 99.64063,42.13868 -54.0918,93.69336 -99.64062,-42.14062 z"
       sodipodi:nodetypes="ccscssccccsscscccccccccssccccccccccssccccccccscccccc" />
  </g>
</svg>
