<?xml version="1.0" encoding="UTF-8" standalone="no"?>
<!-- Created with Inkscape (http://www.inkscape.org/) -->

<svg
   width="515.16602"
   height="515.16602"
   viewBox="0 0 515.16602 515.16601"
   version="1.1"
   id="svg1"
   xml:space="preserve"
   sodipodi:docname="charaides_icon.svg"
   inkscape:version="1.4 (e7c3feb100, 2024-10-09)"
   xmlns:inkscape="http://www.inkscape.org/namespaces/inkscape"
   xmlns:sodipodi="http://sodipodi.sourceforge.net/DTD/sodipodi-0.dtd"
   xmlns="http://www.w3.org/2000/svg"
   xmlns:svg="http://www.w3.org/2000/svg"><sodipodi:namedview
     id="namedview1"
     pagecolor="#505050"
     bordercolor="#eeeeee"
     borderopacity="1"
     inkscape:showpageshadow="0"
     inkscape:pageopacity="0"
     inkscape:pagecheckerboard="0"
     inkscape:deskcolor="#505050"
     inkscape:document-units="px"
     showguides="true"
     inkscape:zoom="0.74531247"
     inkscape:cx="175.09435"
     inkscape:cy="-140.88051"
     inkscape:window-width="1876"
     inkscape:window-height="1006"
     inkscape:window-x="0"
     inkscape:window-y="0"
     inkscape:window-maximized="1"
     inkscape:current-layer="layer1"
     showgrid="false" /><defs
     id="defs1" /><g
     inkscape:label="Layer 1"
     inkscape:groupmode="layer"
     id="layer1"
     transform="translate(-949.6875,-604.3457)"><path
       id="path45"
       style="font-style:normal;font-variant:normal;font-weight:bold;font-stretch:normal;font-size:66.6667px;font-family:'That Sounds Great';-inkscape-font-specification:'That Sounds Great, Bold';font-variant-ligatures:normal;font-variant-caps:normal;font-variant-numeric:normal;font-variant-east-asian:normal;display:none;fill:#784421;fill-opacity:1;stroke-width:2.20181"
       d="m 1174.2634,268.0918 c -11.4256,0 -18.5228,1.99499 -21.2925,5.98632 -2.7698,3.99135 -4.1527,30.05275 -4.1527,78.1836 0,48.1309 1.3829,74.19228 4.1527,78.18359 2.7697,3.99134 9.8669,5.98633 21.2925,5.98633 11.4254,0 18.5267,-1.99499 21.2968,-5.98633 2.7697,-3.99131 4.1527,-30.05269 4.1527,-78.18359 0,-48.13085 -1.383,-74.19225 -4.1527,-78.1836 -2.7701,-3.99133 -9.8714,-5.98632 -21.2968,-5.98632 z" /><path
       id="rect45"
       style="display:none;fill:#784421;fill-opacity:1;stroke-width:0.74529"
       d="m 1090.8308,268.0918 c -10.0102,0 -17.7891,0.46904 -23.3348,1.4082 -5.4986,0.86086 -9.5408,2.69822 -12.1257,5.51562 -2.5848,2.73916 -4.3214,6.84789 -5.2143,12.32618 -5.2167,31.6177 -9.4724,65.85362 -12.7621,102.71484 -1.2689,13.61749 -1.9028,23.52043 -1.9028,29.70313 0,4.93047 4.1131,9.08004 12.3377,12.44531 7.0024,2.81741 13.4424,4.22656 19.317,4.22656 1.8797,0 3.6164,-0.27638 5.2145,-0.82422 3.4307,-1.25218 5.6171,-6.34185 6.557,-15.26367 l 1.975,-19.95313 c 3.2898,0.15659 6.6019,0.23243 9.9385,0.23243 3.3838,0 6.7189,-0.0759 10.0087,-0.23243 l 1.975,19.95313 c 0.9398,8.92182 3.1243,14.01149 6.555,15.26367 1.598,0.54784 3.3368,0.82422 5.2164,0.82422 5.8746,0 12.3147,-1.40915 19.317,-4.22656 7.2984,-3.00354 11.3165,-6.63598 12.101,-10.88672 v -7.86524 c -0.2492,-5.93293 -0.7937,-13.67549 -1.6661,-23.39648 -3.2897,-36.86122 -7.5452,-71.09714 -12.762,-102.71484 -0.9398,-5.47829 -2.7016,-9.58702 -5.2864,-12.32618 -2.5377,-2.8174 -6.5823,-4.65476 -12.1277,-5.51562 -5.5456,-0.93916 -13.3205,-1.4082 -23.3309,-1.4082 z m 0,48.35937 c 1.034,0 1.6199,0.51187 1.7609,1.5293 1.1748,11.42618 2.3278,22.89005 3.4556,34.39453 h -10.3628 l 3.4556,-34.39453 c 0.1408,-1.01743 0.7039,-1.5293 1.6907,-1.5293 z" /><g
       id="g1"><path
         id="path9"
         style="fill:#040f0f;fill-opacity:1;stroke-width:0.46647"
         d="m 1035.5488,604.3457 a 85.860847,85.860847 0 0 0 -85.8613,85.86133 l 1.18164,158.08789 a 85.860847,85.860847 0 0 0 -1.18164,13.63477 85.860847,85.860847 0 0 0 1.39062,14.60156 l 1.02344,136.90625 0.15625,0.1973 a 85.860847,85.860847 0 0 0 -2.57031,20.0156 85.860847,85.860847 0 0 0 85.8613,85.8613 h 171.7207 171.7227 a 85.860847,85.860847 0 0 0 85.8613,-85.8613 85.860847,85.860847 0 0 0 0,-0.08 V 861.95703 a 85.860847,85.860847 0 0 0 0,-0.0273 85.860847,85.860847 0 0 0 0,-0.0801 V 690.23438 a 85.860847,85.860847 0 0 0 0,-0.0273 85.860847,85.860847 0 0 0 -85.8613,-85.86133 h -171.7227 z" /><g
         id="g57"><path
           id="path57"
           style="fill:#803300;fill-opacity:1;stroke:#803300;stroke-width:13.0704;stroke-dasharray:none;stroke-opacity:1"
           d="m 1407.7887,702.19419 c -15.9372,32.79552 -14.6246,30.43493 -30.9722,0 -32.2085,-16.22759 -29.8904,-14.89116 0,-31.53658 15.9371,-32.79555 14.6246,-30.43502 30.9722,0 32.2086,16.22756 29.8905,14.8911 0,31.53658 z"
           sodipodi:nodetypes="ccccc" /><path
           id="path53"
           style="fill:#040f0f;fill-opacity:1;stroke:#ff8811;stroke-width:12.798;stroke-dasharray:none;stroke-opacity:1"
           d="m 1396.0793,699.92594 c -15.9932,31.33272 -14.676,29.07742 -31.081,0 -32.3216,-15.50378 -29.9953,-14.22696 0,-30.12993 15.9931,-31.33274 14.676,-29.0775 31.081,0 32.3217,15.50375 29.9954,14.2269 0,30.12993 z"
           sodipodi:nodetypes="ccccc" /></g><g
         id="g53"
         transform="matrix(1.7133503,0,0,1.7133503,-825.7327,-781.45278)"><g
           id="g29"
           style="fill:#803300;fill-opacity:1"
           transform="matrix(1.8655113,0,0,1.8655113,-1644.3414,246.89352)"><path
             style="fill:#803300;fill-opacity:1;stroke-width:0.822037"
             d="m 1498.2374,407.7262 c 22.5204,4.23276 23.4605,-7.172 33.4237,-15.93352 5.1113,-4.49482 13.1177,-1.46803 11.4379,9.25502 -1.7102,10.91679 -8.2516,22.49434 -24.9381,23.79786 -13.8015,1.07815 -17.4979,-2.1991 -19.9235,-6.24994 -2.2176,-3.70344 -2.7926,-11.3943 0,-10.86942 z"
             id="path27"
             sodipodi:nodetypes="ssssss" /><path
             style="fill:#803300;fill-opacity:1;stroke-width:0.819642"
             d="m 1535.9959,378.56769 c 5.1937,-1.81118 8.6828,4.86123 12.8654,3.31675 4.7347,-1.74836 8.6683,-7.26848 9.8592,-12.77295 1.1631,-5.37574 0.3675,-12.69613 -3.4374,-16.14161 -6.2143,-5.6273 -17.1911,-5.27008 -23.8155,-0.28654 -6.337,4.76732 -11.295,15.83574 -8.7212,23.97402 2.6132,8.26297 8.9821,3.39852 13.2495,1.91033 z"
             id="path28"
             sodipodi:nodetypes="saaaass" /><path
             style="fill:#803300;fill-opacity:1;stroke-width:0.792432"
             d="m 1490.7799,340.39328 c -5.3786,1.6293 -9.2299,6.68496 -10.3635,16.0519 -1.0596,8.75573 -1.2142,16.21784 0.1664,22.52156 1.6326,7.45424 4.976,7.93022 7.9945,8.80618 5.0632,1.46933 11.6513,1.83251 18.8729,0.42175 3.5014,-0.68402 6.4021,-3.26407 7.6855,-12.08741 1.1198,-7.69873 1.5701,-15.67961 0.4754,-24.16641 -0.5133,-3.97969 -1.2708,-8.08573 -6.1405,-10.22327 -7.0779,-3.10681 -13.0631,-3.029 -18.6907,-1.3243 z"
             id="path29"
             sodipodi:nodetypes="sssssssss" /></g><g
           id="g34"
           style="fill:#ff8811;fill-opacity:1"
           transform="matrix(1.8655113,0,0,1.8655113,-1644.3414,246.89352)"><path
             style="fill:#ff8811;fill-opacity:1;stroke-width:0.768"
             d="m 1495.3813,405.31465 c 22.5204,3.69456 23.4605,-6.26008 33.4237,-13.90757 5.1113,-3.92331 13.1177,-1.28137 11.4379,8.07825 -1.7102,9.52872 -8.2516,19.63418 -24.9381,20.77196 -13.8015,0.94106 -17.4979,-1.91949 -19.9235,-5.45525 -2.2176,-3.23256 -2.7926,-9.94553 0,-9.48739 z"
             id="path32"
             sodipodi:nodetypes="ssssss" /><path
             style="fill:#ff8811;fill-opacity:1;stroke-width:0.768"
             d="m 1532.9026,374.51867 c 5.1937,-1.59015 8.6828,4.26797 12.8654,2.91197 4.7347,-1.53499 8.6683,-6.38143 9.8592,-11.21414 1.1631,-4.71967 0.3675,-11.14667 -3.4374,-14.17167 -6.2143,-4.94055 -17.1911,-4.62692 -23.8155,-0.25157 -6.337,4.18551 -11.295,13.90313 -8.7212,21.04822 2.6132,7.25455 8.9821,2.98376 13.2495,1.67719 z"
             id="path33"
             sodipodi:nodetypes="saaaass" /><path
             style="fill:#ff8811;fill-opacity:1;stroke-width:0.768"
             d="m 1486.9751,339.66663 c -5.3786,1.53038 -9.2299,6.27908 -10.3635,15.0773 -1.0596,8.22415 -1.2142,15.2332 0.1664,21.15418 1.6326,7.00168 4.976,7.44875 7.9945,8.27153 5.0632,1.38012 11.6513,1.72125 18.8729,0.39614 3.5014,-0.64248 6.4021,-3.06589 7.6855,-11.35353 1.1198,-7.2313 1.5701,-14.72764 0.4754,-22.69915 -0.5133,-3.73809 -1.2708,-7.59482 -6.1405,-9.60258 -7.0779,-2.91819 -13.0631,-2.8451 -18.6907,-1.24389 z"
             id="path34"
             sodipodi:nodetypes="sssssssss" /></g></g></g></g></svg>
